<svg xmlns="http://www.w3.org/2000/svg" viewBox="1221.5 786.5 28.262 20.653">
  <defs>
    <style>
      .cls-1 {
        fill: #fff;
      }
    </style>
  </defs>
  <g id="book" transform="translate(1221.5 731.623)">
    <path id="Path_15" data-name="Path 15" class="cls-1" d="M27.742,57.476H26.5V56.3a.52.52,0,0,0-.459-.516l-7.21-.847a8.526,8.526,0,0,0-4.7.782,8.525,8.525,0,0,0-4.7-.782l-7.21.847a.52.52,0,0,0-.459.516v1.177H.52A.52.52,0,0,0,0,58V75.01a.52.52,0,0,0,.52.52H27.742a.52.52,0,0,0,.52-.52V58A.52.52,0,0,0,27.742,57.476Zm-9.034-1.508,6.75.793V72.224l-6.629-.778A8.524,8.524,0,0,0,14.651,72V56.623A7.49,7.49,0,0,1,18.707,55.969Zm-9.153,0a7.49,7.49,0,0,1,4.057.654V72a8.511,8.511,0,0,0-3.172-.613,8.636,8.636,0,0,0-1.006.059L2.8,72.224V56.762ZM27.222,74.49H1.04V58.516h.724V72.809a.52.52,0,0,0,.581.516l7.21-.847a7.492,7.492,0,0,1,4.337.792.52.52,0,0,0,.478,0,7.491,7.491,0,0,1,4.337-.792l7.209.847a.52.52,0,0,0,.581-.516V58.516h.724V74.49Z"/>
    <path id="Path_16" data-name="Path 16" class="cls-1" d="M219.8,95.378a7.492,7.492,0,0,1,2.85-.212l5.413.636a.526.526,0,0,0,.061,0,.52.52,0,0,0,.06-1.036l-5.413-.636a8.523,8.523,0,0,0-3.243.241.52.52,0,1,0,.273,1Z" transform="translate(-203.957 -36.481)"/>
    <path id="Path_17" data-name="Path 17" class="cls-1" d="M51.741,95.82a.525.525,0,0,0,.061,0l5.413-.635a7.54,7.54,0,0,1,2.85.212.52.52,0,0,0,.273-1,8.579,8.579,0,0,0-3.244-.242l-5.413.636a.52.52,0,0,0,.06,1.036Z" transform="translate(-47.671 -36.495)"/>
    <path id="Path_18" data-name="Path 18" class="cls-1" d="M219.8,129.78a7.492,7.492,0,0,1,2.85-.212l5.413.636a.526.526,0,0,0,.061,0,.52.52,0,0,0,.06-1.036l-5.413-.636a8.525,8.525,0,0,0-3.243.241.52.52,0,1,0,.273,1Z" transform="translate(-203.957 -68.497)"/>
    <path id="Path_19" data-name="Path 19" class="cls-1" d="M51.741,130.22a.525.525,0,0,0,.061,0l5.413-.635a7.542,7.542,0,0,1,2.85.212.52.52,0,1,0,.273-1,8.579,8.579,0,0,0-3.244-.242l-5.413.636a.52.52,0,0,0,.06,1.036Z" transform="translate(-47.671 -68.511)"/>
    <path id="Path_20" data-name="Path 20" class="cls-1" d="M219.8,164.18a7.491,7.491,0,0,1,2.85-.212l5.413.636a.526.526,0,0,0,.061,0,.52.52,0,0,0,.06-1.036l-5.413-.636a8.527,8.527,0,0,0-3.243.241.52.52,0,1,0,.273,1Z" transform="translate(-203.957 -100.513)"/>
    <path id="Path_21" data-name="Path 21" class="cls-1" d="M51.741,164.621a.525.525,0,0,0,.061,0l5.413-.635a7.542,7.542,0,0,1,2.85.212.52.52,0,1,0,.273-1,8.58,8.58,0,0,0-3.244-.242l-5.413.636a.52.52,0,0,0,.06,1.036Z" transform="translate(-47.671 -100.527)"/>
    <path id="Path_22" data-name="Path 22" class="cls-1" d="M219.8,198.58a7.49,7.49,0,0,1,2.85-.212l5.413.636a.526.526,0,0,0,.061,0,.52.52,0,0,0,.06-1.036l-5.413-.636a8.527,8.527,0,0,0-3.243.241.52.52,0,1,0,.273,1Z" transform="translate(-203.957 -132.528)"/>
    <path id="Path_23" data-name="Path 23" class="cls-1" d="M51.741,199.021a.525.525,0,0,0,.061,0l5.413-.635a7.54,7.54,0,0,1,2.85.212.52.52,0,0,0,.273-1,8.58,8.58,0,0,0-3.244-.242l-5.413.636a.52.52,0,0,0,.06,1.036Z" transform="translate(-47.671 -132.542)"/>
    <path id="Path_24" data-name="Path 24" class="cls-1" d="M228.19,232.371l-5.413-.636a8.526,8.526,0,0,0-3.243.241.52.52,0,0,0,.273,1,7.494,7.494,0,0,1,2.85-.212l5.413.636a.526.526,0,0,0,.061,0,.52.52,0,0,0,.06-1.036Z" transform="translate(-203.958 -164.544)"/>
    <path id="Path_25" data-name="Path 25" class="cls-1" d="M51.741,233.422a.525.525,0,0,0,.061,0l5.413-.635a7.542,7.542,0,0,1,2.85.212.52.52,0,1,0,.273-1,8.579,8.579,0,0,0-3.244-.242l-5.413.636a.52.52,0,0,0,.06,1.036Z" transform="translate(-47.671 -164.559)"/>
  </g>
</svg>
