<svg xmlns="http://www.w3.org/2000/svg" viewBox="1505 1369 36.188 27.41">
  <defs>
    <style>
      .cls-1 {
        fill: #fff;
      }
    </style>
  </defs>
  <g id="Group_16" data-name="Group 16" transform="translate(1335 757)">
    <g id="Sound" transform="translate(171.5 612)">
      <path id="Path_36" data-name="Path 36" class="cls-1" d="M45.888,22.054a11.262,11.262,0,0,0-7.648-10.665.578.578,0,0,0-.372,1.1,10.107,10.107,0,0,1,.013,19.141.578.578,0,0,0,.187,1.126.57.57,0,0,0,.187-.031A11.269,11.269,0,0,0,45.888,22.054Z" transform="translate(-15.809 -8.431)"/>
      <path id="Path_37" data-name="Path 37" class="cls-1" d="M43.564,6.341a.578.578,0,1,0-.452,1.065,13.589,13.589,0,0,1-.4,25.182.578.578,0,0,0,.418,1.079,14.746,14.746,0,0,0,.431-27.325Z" transform="translate(-17.864 -6.295)"/>
      <path id="Path_38" data-name="Path 38" class="cls-1" d="M38.374,24.374a7.84,7.84,0,0,0-5.636-7.494.578.578,0,0,0-.32,1.111,6.643,6.643,0,0,1,0,12.765.578.578,0,0,0,.16,1.134.589.589,0,0,0,.16-.023A7.84,7.84,0,0,0,38.374,24.374Z" transform="translate(-13.499 -10.751)"/>
    </g>
    <g id="_002-speaker" data-name="002-speaker" transform="translate(170 612)">
      <path id="Path_40" data-name="Path 40" class="cls-1" d="M16.422,4.23a1.751,1.751,0,0,0-1.786.025.537.537,0,0,0-.075.054L6.726,10.937H.578A.578.578,0,0,0,0,11.515V22.5a.578.578,0,0,0,.578.578l6.134,0,7.83,7.192a.564.564,0,0,0,.093.069,1.751,1.751,0,0,0,1.786.025,1.8,1.8,0,0,0,.923-1.593V5.824A1.807,1.807,0,0,0,16.422,4.23Zm-.234,24.539a.663.663,0,0,1-.335.587.606.606,0,0,1-.578.015L7.516,22.243V19.609a.578.578,0,0,0-1.156,0v2.31l-5.2,0V12.093h5.2v2.313a.578.578,0,0,0,1.156,0V11.783l7.75-6.556a.6.6,0,0,1,.587.01.662.662,0,0,1,.335.586Z" transform="translate(0 -3.998)"/>
    </g>
  </g>
</svg>
