<svg xmlns="http://www.w3.org/2000/svg" viewBox="1060 1369 31.22 26.596">
  <defs>
    <style>
      .cls-1 {
        fill: #fff;
      }
    </style>
  </defs>
  <g id="_002-speaker" data-name="002-speaker" transform="translate(1060 1369)">
    <path id="Path_39" data-name="Path 39" class="cls-1" d="M42.021,22.2l4.216-4.216a.578.578,0,1,0-.817-.817L41.2,21.386l-4.216-4.216a.578.578,0,0,0-.817.817L40.386,22.2,36.169,26.42a.578.578,0,1,0,.817.817L41.2,23.021l4.216,4.216a.578.578,0,0,0,.817-.817Z" transform="translate(-15.187 -9.483)"/>
    <path id="Path_40" data-name="Path 40" class="cls-1" d="M16.422,4.23a1.751,1.751,0,0,0-1.786.025.537.537,0,0,0-.075.054L6.726,10.937H.578A.578.578,0,0,0,0,11.515V22.5a.578.578,0,0,0,.578.578l6.134,0,7.83,7.192a.564.564,0,0,0,.093.069,1.751,1.751,0,0,0,1.786.025,1.8,1.8,0,0,0,.923-1.593V5.824A1.807,1.807,0,0,0,16.422,4.23Zm-.234,24.539a.663.663,0,0,1-.335.587.606.606,0,0,1-.578.015L7.516,22.243V19.609a.578.578,0,0,0-1.156,0v2.31l-5.2,0V12.093h5.2v2.313a.578.578,0,0,0,1.156,0V11.783l7.75-6.556a.6.6,0,0,1,.587.01.662.662,0,0,1,.335.586Z" transform="translate(0 -3.998)"/>
  </g>
</svg>
